<svg xmlns="http://www.w3.org/2000/svg" width="24" height="25" viewBox="0 0 24 25" fill="none">
  <g clip-path="url(#clip0_6_44)">
    <path d="M8.62451 14.4502C9.24583 14.4502 9.74951 13.9465 9.74951 13.3252C9.74951 12.7039 9.24583 12.2002 8.62451 12.2002C8.00319 12.2002 7.49951 12.7039 7.49951 13.3252C7.49951 13.9465 8.00319 14.4502 8.62451 14.4502Z" fill="#64748B"/>
    <path d="M15.3745 14.4502C15.9958 14.4502 16.4995 13.9465 16.4995 13.3252C16.4995 12.7039 15.9958 12.2002 15.3745 12.2002C14.7532 12.2002 14.2495 12.7039 14.2495 13.3252C14.2495 13.9465 14.7532 14.4502 15.3745 14.4502Z" fill="#64748B"/>
    <path d="M14.3845 7.10886L14.8533 5.26855C14.9001 5.08339 15.0149 4.92267 15.175 4.81842C15.335 4.71417 15.5284 4.67405 15.7167 4.70605L19.0954 5.26292C19.2414 5.28662 19.3772 5.3525 19.4862 5.45245C19.5951 5.55241 19.6724 5.68206 19.7086 5.82542L22.477 16.7351C22.5193 16.9066 22.4997 17.0875 22.4217 17.246C22.3436 17.4045 22.2122 17.5303 22.0504 17.6014L15.7692 20.3857C15.6739 20.429 15.5707 20.4522 15.466 20.454C15.3614 20.4557 15.2575 20.4359 15.1608 20.3958C15.0641 20.3557 14.9767 20.2962 14.9039 20.2209C14.8312 20.1457 14.7747 20.0562 14.7379 19.9582L13.7808 17.3623" stroke="#64748B" stroke-width="2" stroke-linecap="round" stroke-linejoin="round"/>
    <path d="M9.61432 7.10886L9.14557 5.26855C9.09875 5.08339 8.98389 4.92267 8.82386 4.81842C8.66384 4.71417 8.47041 4.67405 8.28213 4.70605L4.90338 5.26292C4.75744 5.28662 4.62162 5.3525 4.51267 5.45245C4.40372 5.55241 4.3264 5.68206 4.29025 5.82542L1.52182 16.7332C1.47952 16.9047 1.49912 17.0857 1.57715 17.2441C1.65519 17.4026 1.78665 17.5284 1.94838 17.5995L8.22963 20.3839C8.32494 20.4271 8.42813 20.4503 8.53279 20.4521C8.63745 20.4538 8.74135 20.434 8.83804 20.3939C8.93474 20.3539 9.02216 20.2943 9.0949 20.2191C9.16764 20.1438 9.22413 20.0544 9.26088 19.9564L10.2181 17.3623" stroke="#64748B" stroke-width="2" stroke-linecap="round" stroke-linejoin="round"/>
    <path d="M7.49951 7.54197C8.96579 7.14184 10.4796 6.94283 11.9995 6.9504C13.5194 6.94283 15.0332 7.14184 16.4995 7.54197" stroke="#64748B" stroke-width="2" stroke-linecap="round" stroke-linejoin="round"/>
    <path d="M16.4995 16.8584C15.0332 17.2585 13.5194 17.4575 11.9995 17.45C10.4796 17.4575 8.96579 17.2585 7.49951 16.8584" stroke="#64748B" stroke-width="2" stroke-linecap="round" stroke-linejoin="round"/>
  </g>
  <defs>
    <clipPath id="clip0_6_44">
      <rect width="24" height="24" fill="white" transform="translate(-0.000488281 0.200195)"/>
    </clipPath>
  </defs>
</svg>