<svg width="12" height="12" viewBox="0 0 12 12" fill="none" xmlns="http://www.w3.org/2000/svg">
<path fillRule="evenodd" clipRule="evenodd" d="M6.17964 0.428589L7.98369 3.12407L9.78774 5.82017L6.17964 7.63794L2.57153 5.81331L4.37558 3.11721L6.17964 0.428589ZM6.17964 8.36417L2.77164 6.54578L6.17964 11.198L9.58764 6.54578L6.17964 8.36417Z" fill="white"/>
<path fillRule="evenodd" clipRule="evenodd" d="M6.17969 0.428589L7.98374 3.11721L9.78779 5.81331L6.17969 4.45124V0.428589Z" fill="white" fill-opacity="0.602"/>
<path fillRule="evenodd" clipRule="evenodd" d="M6.17969 8.36417L9.59454 6.54578L6.17969 11.2049V8.36417Z" fill="#D4DAE3"/>
<path fillRule="evenodd" clipRule="evenodd" d="M6.17969 4.45117L9.78779 5.81325L6.17969 7.63102V4.45117Z" fill="#A9B5C6"/>
<path fillRule="evenodd" clipRule="evenodd" d="M6.17964 0.428589L4.37558 3.11721L2.57153 5.81331L6.17964 4.45124V0.428589Z" fill="white"/>
<path fillRule="evenodd" clipRule="evenodd" d="M6.17948 8.36417L2.77148 6.54578L6.17948 11.2049V8.36417Z" fill="white"/>
<path fillRule="evenodd" clipRule="evenodd" d="M6.17964 4.45117L2.57153 5.81325L6.17964 7.63102V4.45117Z" fill="#D4DAE3"/>
</svg>
