<svg xmlns="http://www.w3.org/2000/svg" width="24" height="25" viewBox="0 0 24 25" fill="none">
  <g clip-path="url(#clip0_7_63)">
    <path d="M8.24976 12.8441L16.7116 20.2626C16.8091 20.3486 16.9273 20.4078 17.0545 20.4343C17.1817 20.4609 17.3137 20.4539 17.4374 20.4141C17.5612 20.3743 17.6725 20.3031 17.7604 20.2073C17.8483 20.1115 17.9098 19.9946 17.9388 19.8679L21.7498 3.31445C21.7535 3.29785 21.7526 3.28055 21.7472 3.26441C21.7419 3.24826 21.7322 3.23388 21.7193 3.2228C21.7064 3.21172 21.6907 3.20437 21.674 3.20152C21.6572 3.19867 21.64 3.20044 21.6241 3.20663L2.62475 10.6419C2.50681 10.6873 2.40677 10.7698 2.33965 10.8769C2.27254 10.9839 2.24197 11.1099 2.25253 11.2359C2.2631 11.3618 2.31423 11.4809 2.39825 11.5753C2.48227 11.6697 2.59464 11.7343 2.71851 11.7594L8.24976 12.8441Z" stroke="#64748B" stroke-width="2" stroke-linecap="round" stroke-linejoin="round"/>
    <path d="M8.24951 12.8446L21.6942 3.20898" stroke="#64748B" stroke-width="2" stroke-linecap="round" stroke-linejoin="round"/>
    <path d="M12.4092 16.4925L9.53951 19.47C9.43582 19.5776 9.30236 19.6518 9.15624 19.683C9.01012 19.7142 8.85801 19.7011 8.7194 19.6453C8.58079 19.5895 8.46202 19.4935 8.3783 19.3698C8.29458 19.246 8.24973 19.1001 8.24951 18.9507V12.8447" stroke="#64748B" stroke-width="2" stroke-linecap="round" stroke-linejoin="round"/>
  </g>
  <defs>
    <clipPath id="clip0_7_63">
      <rect width="24" height="24" fill="white" transform="translate(-0.000488281 0.200195)"/>
    </clipPath>
  </defs>
</svg>